<svg xmlns="http://www.w3.org/2000/svg" version="1.1" xmlns:xlink="http://www.w3.org/1999/xlink" width="1000" height="1000"><style>
    #light-icon {
      display: inline;
    }
    #dark-icon {
      display: none;
    }

    @media (prefers-color-scheme: dark) {
      #light-icon {
        display: none;
      }
      #dark-icon {
        display: inline;
      }
    }
  </style><g id="light-icon"><svg xmlns="http://www.w3.org/2000/svg" version="1.1" xmlns:xlink="http://www.w3.org/1999/xlink" width="1000" height="1000"><g><g transform="matrix(5,0,0,5,0,0)"><svg xmlns="http://www.w3.org/2000/svg" version="1.1" xmlns:xlink="http://www.w3.org/1999/xlink" width="200" height="200"><svg xmlns="http://www.w3.org/2000/svg" version="1.1" xmlns:xlink="http://www.w3.org/1999/xlink" viewBox="0 0 200 200"><rect width="200" height="200" fill="url('#gradient')"></rect><defs><linearGradient id="gradient" gradientTransform="rotate(105 0.5 0.5)"><stop offset="0%" stop-color="#472027"></stop><stop offset="100%" stop-color="#192025"></stop></linearGradient></defs><g><g fill="#f3bd7d" transform="matrix(2.1265712099683025,0,0,2.1265712099683025,2.7179304879146144,115.12417926578811)" stroke="#802a00" stroke-width="0.6"><path d="M9.89-8.57L9.89-6.03L4.50-6.03L4.50-2.64L10.87-2.64L10.87 0L1.07 0L1.07-14.22L10.89-14.22L10.89-11.57L4.50-11.57L4.50-8.57L9.89-8.57ZM12.66-13.19L15.95-13.19L15.95-10.57L17.69-10.57L17.69-8.28L15.95-8.28L15.95-3.45Q15.95-2.85 16.16-2.62Q16.38-2.38 17.01-2.38L17.01-2.38Q17.50-2.38 17.83-2.44L17.83-2.44L17.83-0.09Q16.94 0.20 15.98 0.20L15.98 0.20Q14.28 0.20 13.47-0.61Q12.66-1.41 12.66-3.04L12.66-3.04L12.66-8.28L11.31-8.28L11.31-10.57L12.66-10.57L12.66-13.19ZM18.92-10.57L22.00-10.57L22.11-9.33Q23.20-10.76 25.13-10.76L25.13-10.76Q26.78-10.76 27.59-9.78Q28.41-8.79 28.44-6.81L28.44-6.81L28.44 0L25.14 0L25.14-6.67Q25.14-7.47 24.81-7.85Q24.49-8.22 23.64-8.22L23.64-8.22Q22.68-8.22 22.21-7.46L22.21-7.46L22.21 0L18.92 0L18.92-10.57ZM39.50 0L36.21 0Q36.04-0.32 35.90-0.95L35.90-0.95Q34.99 0.20 33.36 0.20L33.36 0.20Q31.87 0.20 30.82-0.71Q29.78-1.61 29.78-2.98L29.78-2.98Q29.78-4.70 31.04-5.58Q32.31-6.46 34.74-6.46L34.74-6.46L35.75-6.46L35.75-7.01Q35.75-8.47 34.49-8.47L34.49-8.47Q33.32-8.47 33.32-7.31L33.32-7.31L30.03-7.31Q30.03-8.85 31.33-9.80Q32.64-10.76 34.66-10.76Q36.68-10.76 37.85-9.78Q39.02-8.79 39.05-7.07L39.05-7.07L39.05-2.39Q39.07-0.94 39.50-0.17L39.50-0.17L39.50 0ZM34.15-2.15L34.15-2.15Q34.77-2.15 35.17-2.41Q35.58-2.68 35.75-3.01L35.75-3.01L35.75-4.70L34.79-4.70Q33.08-4.70 33.08-3.15L33.08-3.15Q33.08-2.71 33.38-2.43Q33.68-2.15 34.15-2.15ZM53.10-14.22L53.10 0L49.79 0L49.79-10.51L46.55-9.56L46.55-12.06L52.79-14.22L53.10-14.22ZM63.87-5.50L63.87-5.50Q62.80-4.54 61.48-4.54L61.48-4.54Q59.55-4.54 58.42-5.85Q57.29-7.16 57.29-9.35L57.29-9.35Q57.29-10.71 57.92-11.88Q58.55-13.06 59.70-13.74Q60.85-14.42 62.24-14.42L62.24-14.42Q63.64-14.42 64.78-13.72Q65.92-13.01 66.55-11.71Q67.19-10.42 67.21-8.73L67.21-8.73L67.21-7.47Q67.21-5.12 66.28-3.39Q65.36-1.66 63.65-0.73Q61.94 0.20 59.67 0.20L59.67 0.20L59.46 0.20L59.46-2.44L60.09-2.45Q63.49-2.62 63.87-5.50ZM62.37-6.91L62.37-6.91Q63.45-6.91 63.92-7.84L63.92-7.84L63.92-9.21Q63.92-10.58 63.46-11.23Q63.00-11.88 62.22-11.88L62.22-11.88Q61.52-11.88 61.05-11.14Q60.59-10.40 60.59-9.35L60.59-9.35Q60.59-8.23 61.06-7.57Q61.54-6.91 62.37-6.91ZM78.89-2.54L78.89 0L68.96 0L68.96-2.15L73.54-6.95Q75.22-8.88 75.22-10.01L75.22-10.01Q75.22-10.93 74.82-11.41Q74.42-11.88 73.66-11.88L73.66-11.88Q72.91-11.88 72.44-11.25Q71.97-10.61 71.97-9.65L71.97-9.65L68.67-9.65Q68.67-10.96 69.33-12.07Q69.98-13.17 71.14-13.80Q72.30-14.42 73.74-14.42L73.74-14.42Q76.04-14.42 77.29-13.36Q78.54-12.29 78.54-10.30L78.54-10.30Q78.54-9.46 78.22-8.67Q77.91-7.87 77.25-7.00Q76.59-6.12 75.13-4.66L75.13-4.66L73.29-2.54L78.89-2.54ZM90.14-10.42L90.14-10.42Q90.14-9.38 89.62-8.59Q89.11-7.80 88.21-7.32L88.21-7.32Q89.23-6.83 89.82-5.96Q90.42-5.10 90.42-3.92L90.42-3.92Q90.42-2.01 89.11-0.91Q87.79 0.20 85.49 0.20L85.49 0.20Q83.17 0.20 81.84-0.91Q80.50-2.02 80.50-3.92L80.50-3.92Q80.50-5.06 81.08-5.94Q81.67-6.82 82.74-7.32L82.74-7.32Q81.84-7.80 81.32-8.59Q80.80-9.38 80.80-10.42L80.80-10.42Q80.80-12.28 82.06-13.35Q83.32-14.42 85.46-14.42L85.46-14.42Q87.62-14.42 88.88-13.35Q90.14-12.28 90.14-10.42ZM87.12-4.18L87.12-4.18Q87.12-5.06 86.67-5.53Q86.21-6.01 85.47-6.01Q84.73-6.01 84.27-5.53Q83.81-5.06 83.81-4.18L83.81-4.18Q83.81-3.33 84.27-2.84Q84.74-2.34 85.49-2.34L85.49-2.34Q86.22-2.34 86.67-2.83Q87.12-3.32 87.12-4.18ZM85.46-11.88L85.46-11.88Q84.79-11.88 84.45-11.45Q84.10-11.02 84.10-10.24L84.10-10.24Q84.10-9.48 84.45-9.01Q84.80-8.54 85.49-8.54L85.49-8.54Q86.16-8.54 86.50-9.01Q86.84-9.48 86.84-10.24Q86.84-11.01 86.49-11.45Q86.14-11.88 85.46-11.88Z"></path></g></g></svg></svg></g></g></svg></g><g id="dark-icon"><svg xmlns="http://www.w3.org/2000/svg" version="1.1" xmlns:xlink="http://www.w3.org/1999/xlink" width="1000" height="1000"><g><g transform="matrix(5,0,0,5,0,0)"><svg xmlns="http://www.w3.org/2000/svg" version="1.1" xmlns:xlink="http://www.w3.org/1999/xlink" width="200" height="200"><svg xmlns="http://www.w3.org/2000/svg" version="1.1" xmlns:xlink="http://www.w3.org/1999/xlink" viewBox="0 0 200 200"><rect width="200" height="200" fill="url('#gradient')"></rect><defs><linearGradient id="gradient" gradientTransform="rotate(105 0.5 0.5)"><stop offset="0%" stop-color="#472027"></stop><stop offset="100%" stop-color="#192025"></stop></linearGradient></defs><g><g fill="#f3bd7d" transform="matrix(2.1265712099683025,0,0,2.1265712099683025,2.7179304879146144,115.12417926578811)" stroke="#802a00" stroke-width="0.6"><path d="M9.89-8.57L9.89-6.03L4.50-6.03L4.50-2.64L10.87-2.64L10.87 0L1.07 0L1.07-14.22L10.89-14.22L10.89-11.57L4.50-11.57L4.50-8.57L9.89-8.57ZM12.66-13.19L15.95-13.19L15.95-10.57L17.69-10.57L17.69-8.28L15.95-8.28L15.95-3.45Q15.95-2.85 16.16-2.62Q16.38-2.38 17.01-2.38L17.01-2.38Q17.50-2.38 17.83-2.44L17.83-2.44L17.83-0.09Q16.94 0.20 15.98 0.20L15.98 0.20Q14.28 0.20 13.47-0.61Q12.66-1.41 12.66-3.04L12.66-3.04L12.66-8.28L11.31-8.28L11.31-10.57L12.66-10.57L12.66-13.19ZM18.92-10.57L22.00-10.57L22.11-9.33Q23.20-10.76 25.13-10.76L25.13-10.76Q26.78-10.76 27.59-9.78Q28.41-8.79 28.44-6.81L28.44-6.81L28.44 0L25.14 0L25.14-6.67Q25.14-7.47 24.81-7.85Q24.49-8.22 23.64-8.22L23.64-8.22Q22.68-8.22 22.21-7.46L22.21-7.46L22.21 0L18.92 0L18.92-10.57ZM39.50 0L36.21 0Q36.04-0.32 35.90-0.95L35.90-0.95Q34.99 0.20 33.36 0.20L33.36 0.20Q31.87 0.20 30.82-0.71Q29.78-1.61 29.78-2.98L29.78-2.98Q29.78-4.70 31.04-5.58Q32.31-6.46 34.74-6.46L34.74-6.46L35.75-6.46L35.75-7.01Q35.75-8.47 34.49-8.47L34.49-8.47Q33.32-8.47 33.32-7.31L33.32-7.31L30.03-7.31Q30.03-8.85 31.33-9.80Q32.64-10.76 34.66-10.76Q36.68-10.76 37.85-9.78Q39.02-8.79 39.05-7.07L39.05-7.07L39.05-2.39Q39.07-0.94 39.50-0.17L39.50-0.17L39.50 0ZM34.15-2.15L34.15-2.15Q34.77-2.15 35.17-2.41Q35.58-2.68 35.75-3.01L35.75-3.01L35.75-4.70L34.79-4.70Q33.08-4.70 33.08-3.15L33.08-3.15Q33.08-2.71 33.38-2.43Q33.68-2.15 34.15-2.15ZM53.10-14.22L53.10 0L49.79 0L49.79-10.51L46.55-9.56L46.55-12.06L52.79-14.22L53.10-14.22ZM63.87-5.50L63.87-5.50Q62.80-4.54 61.48-4.54L61.48-4.54Q59.55-4.54 58.42-5.85Q57.29-7.16 57.29-9.35L57.29-9.35Q57.29-10.71 57.92-11.88Q58.55-13.06 59.70-13.74Q60.85-14.42 62.24-14.42L62.24-14.42Q63.64-14.42 64.78-13.72Q65.92-13.01 66.55-11.71Q67.19-10.42 67.21-8.73L67.21-8.73L67.21-7.47Q67.21-5.12 66.28-3.39Q65.36-1.66 63.65-0.73Q61.94 0.20 59.67 0.20L59.67 0.20L59.46 0.20L59.46-2.44L60.09-2.45Q63.49-2.62 63.87-5.50ZM62.37-6.91L62.37-6.91Q63.45-6.91 63.92-7.84L63.92-7.84L63.92-9.21Q63.92-10.58 63.46-11.23Q63.00-11.88 62.22-11.88L62.22-11.88Q61.52-11.88 61.05-11.14Q60.59-10.40 60.59-9.35L60.59-9.35Q60.59-8.23 61.06-7.57Q61.54-6.91 62.37-6.91ZM78.89-2.54L78.89 0L68.96 0L68.96-2.15L73.54-6.95Q75.22-8.88 75.22-10.01L75.22-10.01Q75.22-10.93 74.82-11.41Q74.42-11.88 73.66-11.88L73.66-11.88Q72.91-11.88 72.44-11.25Q71.97-10.61 71.97-9.65L71.97-9.65L68.67-9.65Q68.67-10.96 69.33-12.07Q69.98-13.17 71.14-13.80Q72.30-14.42 73.74-14.42L73.74-14.42Q76.04-14.42 77.29-13.36Q78.54-12.29 78.54-10.30L78.54-10.30Q78.54-9.46 78.22-8.67Q77.91-7.87 77.25-7.00Q76.59-6.12 75.13-4.66L75.13-4.66L73.29-2.54L78.89-2.54ZM90.14-10.42L90.14-10.42Q90.14-9.38 89.62-8.59Q89.11-7.80 88.21-7.32L88.21-7.32Q89.23-6.83 89.82-5.96Q90.42-5.10 90.42-3.92L90.42-3.92Q90.42-2.01 89.11-0.91Q87.79 0.20 85.49 0.20L85.49 0.20Q83.17 0.20 81.84-0.91Q80.50-2.02 80.50-3.92L80.50-3.92Q80.50-5.06 81.08-5.94Q81.67-6.82 82.74-7.32L82.74-7.32Q81.84-7.80 81.32-8.59Q80.80-9.38 80.80-10.42L80.80-10.42Q80.80-12.28 82.06-13.35Q83.32-14.42 85.46-14.42L85.46-14.42Q87.62-14.42 88.88-13.35Q90.14-12.28 90.14-10.42ZM87.12-4.18L87.12-4.18Q87.12-5.06 86.67-5.53Q86.21-6.01 85.47-6.01Q84.73-6.01 84.27-5.53Q83.81-5.06 83.81-4.18L83.81-4.18Q83.81-3.33 84.27-2.84Q84.74-2.34 85.49-2.34L85.49-2.34Q86.22-2.34 86.67-2.83Q87.12-3.32 87.12-4.18ZM85.46-11.88L85.46-11.88Q84.79-11.88 84.45-11.45Q84.10-11.02 84.10-10.24L84.10-10.24Q84.10-9.48 84.45-9.01Q84.80-8.54 85.49-8.54L85.49-8.54Q86.16-8.54 86.50-9.01Q86.84-9.48 86.84-10.24Q86.84-11.01 86.49-11.45Q86.14-11.88 85.46-11.88Z"></path></g></g></svg></svg></g></g></svg></g></svg>